{
    "asset" : {
        "generator" : "Khronos glTF Blender I/O v1.2.75",
        "version" : "2.0"
    },
    "scene" : 0,
    "scenes" : [
        {
            "name" : "Scene",
            "nodes" : [
                0,
                1,
                2
            ]
        }
    ],
    "nodes" : [
        {
            "name" : "Light",
            "rotation" : [
                0.16907575726509094,
                0.7558803558349609,
                -0.27217137813568115,
                0.570947527885437
            ],
            "translation" : [
                -92.55638885498047,
                163.20443725585938,
                -43.750579833984375
            ]
        },
        {
            "name" : "Camera",
            "rotation" : [
                0.27359962463378906,
                -0.6524150967597961,
                0.2733249366283417,
                0.6517601013183594
            ],
            "translation" : [
                -64.4002685546875,
                201.61404418945312,
                -104.4520263671875
            ]
        },
        {
            "mesh" : 0,
            "name" : "bainann",
            "scale" : [
                0.05000000074505806,
                0.05000000074505806,
                0.05000000074505806
            ]
        }
    ],
    "materials" : [
        {
            "doubleSided" : true,
            "emissiveFactor" : [
                0,
                0,
                0
            ],
            "name" : "\u30de\u30c6\u30ea\u30a2\u30eb.002",
            "pbrMetallicRoughness" : {
                "baseColorFactor" : [
                    0.9258255958557129,
                    0.9258255958557129,
                    0.9258255958557129,
                    1
                ],
                "metallicFactor" : 0,
                "roughnessFactor" : 0.5
            }
        },
        {
            "doubleSided" : true,
            "emissiveFactor" : [
                0,
                0,
                0
            ],
            "name" : "\u30de\u30c6\u30ea\u30a2\u30eb.003",
            "pbrMetallicRoughness" : {
                "baseColorFactor" : [
                    0.2597988247871399,
                    0.2597988247871399,
                    0.2597988247871399,
                    1
                ],
                "metallicFactor" : 0,
                "roughnessFactor" : 0.5
            }
        },
        {
            "doubleSided" : true,
            "emissiveFactor" : [
                0,
                0,
                0
            ],
            "name" : "\u30de\u30c6\u30ea\u30a2\u30eb.004",
            "pbrMetallicRoughness" : {
                "baseColorFactor" : [
                    0.0036421341355890036,
                    0.0036421341355890036,
                    0.0036421341355890036,
                    1
                ],
                "metallicFactor" : 0,
                "roughnessFactor" : 0.5
            }
        }
    ],
    "meshes" : [
        {
            "name" : "bainann",
            "primitives" : [
                {
                    "attributes" : {
                        "POSITION" : 0,
                        "NORMAL" : 1,
                        "TEXCOORD_0" : 2
                    },
                    "indices" : 3,
                    "material" : 0
                },
                {
                    "attributes" : {
                        "POSITION" : 4,
                        "NORMAL" : 5,
                        "TEXCOORD_0" : 6
                    },
                    "indices" : 7,
                    "material" : 1
                },
                {
                    "attributes" : {
                        "POSITION" : 8,
                        "NORMAL" : 9,
                        "TEXCOORD_0" : 10
                    },
                    "indices" : 11,
                    "material" : 2
                }
            ]
        }
    ],
    "accessors" : [
        {
            "bufferView" : 0,
            "componentType" : 5126,
            "count" : 1312,
            "max" : [
                3540,
                2340,
                0
            ],
            "min" : [
                0,
                0,
                -5075
            ],
            "type" : "VEC3"
        },
        {
            "bufferView" : 1,
            "componentType" : 5126,
            "count" : 1312,
            "type" : "VEC3"
        },
        {
            "bufferView" : 2,
            "componentType" : 5126,
            "count" : 1312,
            "type" : "VEC2"
        },
        {
            "bufferView" : 3,
            "componentType" : 5123,
            "count" : 3375,
            "type" : "SCALAR"
        },
        {
            "bufferView" : 4,
            "componentType" : 5126,
            "count" : 44,
            "max" : [
                3400,
                2340,
                -140
            ],
            "min" : [
                140,
                140,
                -4910
            ],
            "type" : "VEC3"
        },
        {
            "bufferView" : 5,
            "componentType" : 5126,
            "count" : 44,
            "type" : "VEC3"
        },
        {
            "bufferView" : 6,
            "componentType" : 5126,
            "count" : 44,
            "type" : "VEC2"
        },
        {
            "bufferView" : 7,
            "componentType" : 5123,
            "count" : 72,
            "type" : "SCALAR"
        },
        {
            "bufferView" : 8,
            "componentType" : 5126,
            "count" : 25,
            "max" : [
                3306,
                1576,
                -1331.5
            ],
            "min" : [
                280,
                870,
                -2564.5
            ],
            "type" : "VEC3"
        },
        {
            "bufferView" : 9,
            "componentType" : 5126,
            "count" : 25,
            "type" : "VEC3"
        },
        {
            "bufferView" : 10,
            "componentType" : 5126,
            "count" : 25,
            "type" : "VEC2"
        },
        {
            "bufferView" : 11,
            "componentType" : 5123,
            "count" : 45,
            "type" : "SCALAR"
        }
    ],
    "bufferViews" : [
        {
            "buffer" : 0,
            "byteLength" : 15744,
            "byteOffset" : 0
        },
        {
            "buffer" : 0,
            "byteLength" : 15744,
            "byteOffset" : 15744
        },
        {
            "buffer" : 0,
            "byteLength" : 10496,
            "byteOffset" : 31488
        },
        {
            "buffer" : 0,
            "byteLength" : 6750,
            "byteOffset" : 41984
        },
        {
            "buffer" : 0,
            "byteLength" : 528,
            "byteOffset" : 48736
        },
        {
            "buffer" : 0,
            "byteLength" : 528,
            "byteOffset" : 49264
        },
        {
            "buffer" : 0,
            "byteLength" : 352,
            "byteOffset" : 49792
        },
        {
            "buffer" : 0,
            "byteLength" : 144,
            "byteOffset" : 50144
        },
        {
            "buffer" : 0,
            "byteLength" : 300,
            "byteOffset" : 50288
        },
        {
            "buffer" : 0,
            "byteLength" : 300,
            "byteOffset" : 50588
        },
        {
            "buffer" : 0,
            "byteLength" : 200,
            "byteOffset" : 50888
        },
        {
            "buffer" : 0,
            "byteLength" : 90,
            "byteOffset" : 51088
        }
    ],
    "buffers" : [
        {
            "byteLength" : 51180,
            "uri" : "data:application/octet-stream;base64,"
        }
    ]
}
